<svg><symbol id="icon-add" preserveAspectRatio="xMinYMin meet"><path d="M12 5v14M5 12h14"></path></symbol><symbol id="icon-admin" preserveAspectRatio="xMinYMin meet"><path d="M19.4 15a1.65 1.65 0 0 0 .33 1.82l.06.06a2 2 0 0 1 0 2.83 2 2 0 0 1-2.83 0l-.06-.06a1.65 1.65 0 0 0-1.82-.33 1.65 1.65 0 0 0-1 1.51V21a2 2 0 0 1-2 2 2 2 0 0 1-2-2v-.09A1.65 1.65 0 0 0 9 19.4a1.65 1.65 0 0 0-1.82.33l-.06.06a2 2 0 0 1-2.83 0 2 2 0 0 1 0-2.83l.06-.06a1.65 1.65 0 0 0 .33-1.82 1.65 1.65 0 0 0-1.51-1H3a2 2 0 0 1-2-2 2 2 0 0 1 2-2h.09A1.65 1.65 0 0 0 4.6 9a1.65 1.65 0 0 0-.33-1.82l-.06-.06a2 2 0 0 1 0-2.83 2 2 0 0 1 2.83 0l.06.06a1.65 1.65 0 0 0 1.82.33H9a1.65 1.65 0 0 0 1-1.51V3a2 2 0 0 1 2-2 2 2 0 0 1 2 2v.09a1.65 1.65 0 0 0 1 1.51 1.65 1.65 0 0 0 1.82-.33l.06-.06a2 2 0 0 1 2.83 0 2 2 0 0 1 0 2.83l-.06.06a1.65 1.65 0 0 0-.33 1.82V9a1.65 1.65 0 0 0 1.51 1H21a2 2 0 0 1 2 2 2 2 0 0 1-2 2h-.09a1.65 1.65 0 0 0-1.51 1zM9,12a3,3 0 1,0 6,0a3,3 0 1,0 -6,0"></path></symbol><symbol id="icon-arrow-left" preserveAspectRatio="xMinYMin meet"><path d="M19 12H5M12 19l-7-7 7-7"></path></symbol><symbol id="icon-arrow-right" preserveAspectRatio="xMinYMin meet"><path d="M5 12h14M12 5l7 7-7 7"></path></symbol><symbol id="icon-back" preserveAspectRatio="xMinYMin meet"><path d="M19 12H5M12 19l-7-7 7-7"></path></symbol><symbol id="icon-calendar" preserveAspectRatio="xMinYMin meet"><path d="M3 6a2 2 0 0 1 2 -2 h14a2 2 0 0 1 2 2v14a2 2 0 0 1 -2 2h-14a2 2 0 0 1 -2 -2v-14M16 2v4M8 2v4M3 10h18"></path></symbol><symbol id="icon-check" preserveAspectRatio="xMinYMin meet"><path d="M20 6L9 17l-5-5"></path></symbol><symbol id="icon-checkbox" preserveAspectRatio="xMinYMin meet"><path class="circle" d="M12 2a10 10 0 0 1 0 20a10 10 0 0 1 0 -20"></path><path class="check" d="M8 12l3 3l6-6"></path></symbol><symbol id="icon-chevron-down" preserveAspectRatio="xMinYMin meet"><path d="M6 9l6 6 6-6"></path></symbol><symbol id="icon-chevron-right" preserveAspectRatio="xMinYMin meet"><path d="M9 18l6-6-6-6"></path></symbol><symbol id="icon-clock" preserveAspectRatio="xMinYMin meet"><path d="M12 2a10 10 0 0 1 0 20a10 10 0 0 1 0 -20M12 6v6l4 2"></path></symbol><symbol id="icon-close" preserveAspectRatio="xMinYMin meet"><path d="M18 6L6 18M6 6l12 12"></path></symbol><symbol id="icon-code-of-conduct" preserveAspectRatio="xMinYMin meet"><path d="M12 1a7 7 0 0 1 0 14a7 7 0 0 1 0-14M8.21 13.89L7 23l5-3 5 3-1.21-9.12"></path></symbol><symbol id="icon-content" preserveAspectRatio="xMinYMin meet"><path d="M11 4H4a2 2 0 0 0-2 2v14a2 2 0 0 0 2 2h14a2 2 0 0 0 2-2v-7M18.5 2.5a2.121 2.121 0 0 1 3 3L12 15l-4 1 1-4 9.5-9.5z"></path></symbol><symbol id="icon-copy" preserveAspectRatio="xMinYMin meet"><path d="M5 15H4a2 2 0 0 1-2-2V4a2 2 0 0 1 2-2h9a2 2 0 0 1 2 2v1M11,9h9a2,2 0 0 1 2,2v9a2,2 0 0 1 -2,2h-9a2,2 0 0 1 -2,-2v-9a2,2 0 0 1 2,-2"></path></symbol><symbol id="icon-country" preserveAspectRatio="xMinYMin meet"><path d="M12 2a10 10 0 0 1 0 20a10 10 0 0 1 0 -20M2 12h20M12 2a15.3 15.3 0 0 1 4 10 15.3 15.3 0 0 1-4 10 15.3 15.3 0 0 1-4-10 15.3 15.3 0 0 1 4-10z"></path></symbol><symbol id="icon-development" preserveAspectRatio="xMinYMin meet"><path d="M21 6c0 1.7-1.3 3-3 3s-3-1.3-3-3 1.3-3 3-3M15.9 8.1l-9.5 9.5M14.5 14.5L20 20M7.7 7.7L12 12M10.8 4.6l-5.7 5.7c-.4.4-1 .4-1.4 0L2.3 8.8c-.4-.4-.4-1 0-1.4l3.5-3.5C7 2.7 8.9 2.7 10 3.9l.8.7zM3,19a2,2 0 1,0 4,0a2,2 0 1,0 -4,0"></path></symbol><symbol id="icon-edit" preserveAspectRatio="xMinYMin meet"><path d="M14 2l4 4L7 17H3v-4L14 2zM3 22h18"></path></symbol><symbol id="icon-email" preserveAspectRatio="xMinYMin meet"><path d="M4 4h16c1.1 0 2 .9 2 2v12c0 1.1-.9 2-2 2H4c-1.1 0-2-.9-2-2V6c0-1.1.9-2 2-2zM22 6l-10 7L2 6"></path></symbol><symbol id="icon-error" preserveAspectRatio="xMinYMin meet"><circle cx="12" cy="12" r="10"></circle><path d="M12 2a10 10 0 0 1 0 20a10 10 0 0 1 0 -20M12 8v4M12 16h0"></path></symbol><symbol id="icon-facebook" preserveAspectRatio="xMinYMin meet"><path d="M18 2h-3a5 5 0 0 0-5 5v3H7v4h3v8h4v-8h3l1-4h-4V7a1 1 0 0 1 1-1h3z"></path></symbol><symbol id="icon-google" preserveAspectRatio="xMinYMin meet"><path d="M21.8 10H12v4h5.7c-.8 2.3-3 4-5.7 4-3.3 0-6-2.7-6-6s2.7-6 6-6c1.7 0 3.2.7 4.2 1.8L19 5c-1.7-1.9-4.2-3-7-3C6.5 2 2 6.5 2 12s4.5 10 10 10 10-4.5 10-10c0-.7-.1-1.4-.2-2z"></path></symbol><symbol id="icon-home" preserveAspectRatio="xMinYMin meet"><path d="M3 9l9-7 9 7v11a2 2 0 0 1-2 2H5a2 2 0 0 1-2-2zM9 22V12h6v10"></path></symbol><symbol id="icon-image" preserveAspectRatio="xMinYMin meet"><path d="M5,3h14a2,2 0 0 1 2,2v14a2,2 0 0 1 -2,2h-14a2,2 0 0 1 -2,-2v-14a2,2 0 0 1 2,-2M21 15l-5-5L5 21M7,8.5a1.5,1.5 0 1,0 3,0a1.5,1.5 0 1,0 -3,0M100,100 h200 a20,20 0 0 1 20,20 v200 a20,20 0 0 1 -20,20 h-200 a20,20 0 0 1 -20,-20 v-200 a20,20 0 0 1 20,-20 z"></path></symbol><symbol id="icon-info" preserveAspectRatio="xMinYMin meet"><path d="M12 2a10 10 0 0 1 0 20a10 10 0 0 1 0 -20M12 16v-4M12 8h0"></path></symbol><symbol id="icon-levels" preserveAspectRatio="xMinYMin meet"><path d="M2 3h6a4 4 0 0 1 4 4v14a3 3 0 0 0-3-3H2zM22 3h-6a4 4 0 0 0-4 4v14a3 3 0 0 1 3-3h7z"></path></symbol><symbol id="icon-link" preserveAspectRatio="xMinYMin meet"><path d="M15 7h3a5 5 0 0 1 5 5 5 5 0 0 1-5 5h-3m-6 0H6a5 5 0 0 1-5-5 5 5 0 0 1 5-5h3M8 12h8"></path></symbol><symbol id="icon-log-out" preserveAspectRatio="xMinYMin meet"><path d="M9 21H5a2 2 0 0 1-2-2V5a2 2 0 0 1 2-2h4M16 17l5-5-5-5M21 12H9"></path></symbol><symbol id="icon-pitch" preserveAspectRatio="xMinYMin meet"><path d="M17 12c0-2.8-2.2-5-5-5s-5 2.2-5 5c0 2 1.2 3.8 3 4.6V20c0 1.1.9 2 2 2s2-.9 2-2v-3.4c1.8-.8 3-2.6 3-4.6zM12 1v2M4.2 4.2l1.4 1.4m12.8 12.8l1.4 1.4M1 12h2m18 0h2M4.2 19.8l1.4-1.4M18.4 5.6l1.4-1.4M14 18.4"></path></symbol><symbol id="icon-role" preserveAspectRatio="xMinYMin meet"><path d="M3 13a2 2 0 0 1 2-2h14a2 2 0 0 1 2 2v7a2 2 0 0 1 -2 2h-14a2 2 0 0 1 -2-2v-7M7 11V7a5 5 0 0 1 10 0v4"></path></symbol><symbol id="icon-send" preserveAspectRatio="xMinYMin meet"><path d="M22 2L11 13M22 2l-7 20-4-9-9-4 20-7z"></path></symbol><symbol id="icon-show" preserveAspectRatio="xMinYMin meet"><path d="M1,19H23V15a3,3,0,0,1,0-6V5H1V9a3,3,0,0,1,0,6ZM15,8.5v0m0,3.5v0m0,3.5v0"></path></symbol><symbol id="icon-text" preserveAspectRatio="xMinYMin meet"><path d="M14 2H6a2 2 0 0 0-2 2v16a2 2 0 0 0 2 2h12a2 2 0 0 0 2-2V8z"></path><path d="M14 2v6h6M16 13H8M16 17H8M10 9H8"></path></symbol><symbol id="icon-trash" preserveAspectRatio="xMinYMin meet"><path d="M3 6h18M19 6v14a2 2 0 0 1-2 2H7a2 2 0 0 1-2-2V6m3 0V4a2 2 0 0 1 2-2h4a2 2 0 0 1 2 2v2M10 11v6M14 11v6"></path></symbol><symbol id="icon-twitter" preserveAspectRatio="xMinYMin meet"><path d="M23 3a10.9 10.9 0 0 1-3.14 1.53 4.48 4.48 0 0 0-7.86 3v1A10.66 10.66 0 0 1 3 4s-4 9 5 13a11.64 11.64 0 0 1-7 2c9 5 20 0 20-11.5a4.5 4.5 0 0 0-.08-.83A7.72 7.72 0 0 0 23 3z"></path></symbol><symbol id="icon-upload" preserveAspectRatio="xMinYMin meet"><path d="M16 16l-4-4-4 4M12 12v9M20.39 18.39A5 5 0 0 0 18 9h-1.26A8 8 0 1 0 3 16.3M16 16l-4-4-4 4"></path></symbol><symbol id="icon-user" preserveAspectRatio="xMinYMin meet"><path d="M20 21v-2a4 4 0 0 0-4-4H8a4 4 0 0 0-4 4v2M8,7a4,4 0 1,0 8,0a4,4 0 1,0 -8,0"></path></symbol><symbol id="icon-venue" preserveAspectRatio="xMinYMin meet"><path d="M21 10c0 7-9 13-9 13s-9-6-9-13a9 9 0 0 1 18 0zM9,10a3,3 0 1,0 6,0a3,3 0 1,0 -6,0"></path></symbol><symbol id="icon-workshop" preserveAspectRatio="xMinYMin meet"><path d="M23,15.5v-6l-11,-5.5l-11,5.5l11,5.5l11,-5.5M5,15c0,2,3,4,7,4s7-2,7-4"></path></symbol></svg>