<svg><symbol id="icon-chevron-down" preserveAspectRatio="xMinYMin meet"><path d="M6 9l6 6 6-6"></path></symbol><symbol id="icon-close" preserveAspectRatio="xMinYMin meet"><path d="M18 6L6 18M6 6l12 12"></path></symbol><symbol id="icon-log-out" preserveAspectRatio="xMinYMin meet"><path d="M9 21H5a2 2 0 0 1-2-2V5a2 2 0 0 1 2-2h4M16 17l5-5-5-5M21 12H9"></path></symbol><symbol id="icon-show" preserveAspectRatio="xMinYMin meet"><path d="M1,19H23V15a3,3,0,0,1,0-6V5H1V9a3,3,0,0,1,0,6ZM15,8.5v0m0,3.5v0m0,3.5v0"></path></symbol><symbol id="icon-user" preserveAspectRatio="xMinYMin meet"><path d="M20 21v-2a4 4 0 0 0-4-4H8a4 4 0 0 0-4 4v2M8,7a4,4 0 1,0 8,0a4,4 0 1,0 -8,0"></path></symbol><symbol id="icon-workshop" preserveAspectRatio="xMinYMin meet"><path d="M23,15.5v-6l-11,-5.5l-11,5.5l11,5.5l11,-5.5M5,15c0,2,3,4,7,4s7-2,7-4"></path></symbol></svg>