<svg><symbol id="icon-add" preserveAspectRatio="xMinYMin meet"><path d="M12 5v14M5 12h14"></path></symbol><symbol id="icon-admin" preserveAspectRatio="xMinYMin meet"><path d="M19.4 15a1.65 1.65 0 0 0 .33 1.82l.06.06a2 2 0 0 1 0 2.83 2 2 0 0 1-2.83 0l-.06-.06a1.65 1.65 0 0 0-1.82-.33 1.65 1.65 0 0 0-1 1.51V21a2 2 0 0 1-2 2 2 2 0 0 1-2-2v-.09A1.65 1.65 0 0 0 9 19.4a1.65 1.65 0 0 0-1.82.33l-.06.06a2 2 0 0 1-2.83 0 2 2 0 0 1 0-2.83l.06-.06a1.65 1.65 0 0 0 .33-1.82 1.65 1.65 0 0 0-1.51-1H3a2 2 0 0 1-2-2 2 2 0 0 1 2-2h.09A1.65 1.65 0 0 0 4.6 9a1.65 1.65 0 0 0-.33-1.82l-.06-.06a2 2 0 0 1 0-2.83 2 2 0 0 1 2.83 0l.06.06a1.65 1.65 0 0 0 1.82.33H9a1.65 1.65 0 0 0 1-1.51V3a2 2 0 0 1 2-2 2 2 0 0 1 2 2v.09a1.65 1.65 0 0 0 1 1.51 1.65 1.65 0 0 0 1.82-.33l.06-.06a2 2 0 0 1 2.83 0 2 2 0 0 1 0 2.83l-.06.06a1.65 1.65 0 0 0-.33 1.82V9a1.65 1.65 0 0 0 1.51 1H21a2 2 0 0 1 2 2 2 2 0 0 1-2 2h-.09a1.65 1.65 0 0 0-1.51 1zM9,12a3,3 0 1,0 6,0a3,3 0 1,0 -6,0"></path></symbol><symbol id="icon-chevron-down" preserveAspectRatio="xMinYMin meet"><path d="M6 9l6 6 6-6"></path></symbol><symbol id="icon-close" preserveAspectRatio="xMinYMin meet"><path d="M18 6L6 18M6 6l12 12"></path></symbol><symbol id="icon-copy" preserveAspectRatio="xMinYMin meet"><path d="M5 15H4a2 2 0 0 1-2-2V4a2 2 0 0 1 2-2h9a2 2 0 0 1 2 2v1M9 9h13v13h-13z"></path></symbol><symbol id="icon-development" preserveAspectRatio="xMinYMin meet"><path d="M21 6c0 1.7-1.3 3-3 3s-3-1.3-3-3 1.3-3 3-3M15.9 8.1l-9.5 9.5M14.5 14.5L20 20M7.7 7.7L12 12M10.8 4.6l-5.7 5.7c-.4.4-1 .4-1.4 0L2.3 8.8c-.4-.4-.4-1 0-1.4l3.5-3.5C7 2.7 8.9 2.7 10 3.9l.8.7zM3,19a2,2 0 1,0 4,0a2,2 0 1,0 -4,0"></path></symbol><symbol id="icon-log-out" preserveAspectRatio="xMinYMin meet"><path d="M9 21H5a2 2 0 0 1-2-2V5a2 2 0 0 1 2-2h4M16 17l5-5-5-5M21 12H9"></path></symbol><symbol id="icon-show" preserveAspectRatio="xMinYMin meet"><path d="M1,19H23V15a3,3,0,0,1,0-6V5H1V9a3,3,0,0,1,0,6ZM15,8.5v0m0,3.5v0m0,3.5v0"></path></symbol><symbol id="icon-trash" preserveAspectRatio="xMinYMin meet"><path d="M3 6h18M19 6v14a2 2 0 0 1-2 2H7a2 2 0 0 1-2-2V6m3 0V4a2 2 0 0 1 2-2h4a2 2 0 0 1 2 2v2M10 11v6M14 11v6"></path></symbol><symbol id="icon-user" preserveAspectRatio="xMinYMin meet"><path d="M20 21v-2a4 4 0 0 0-4-4H8a4 4 0 0 0-4 4v2M8,7a4,4 0 1,0 8,0a4,4 0 1,0 -8,0"></path></symbol><symbol id="icon-workshop" preserveAspectRatio="xMinYMin meet"><path d="M23,15.5v-6l-11,-5.5l-11,5.5l11,5.5l11,-5.5M5,15c0,2,3,4,7,4s7-2,7-4"></path></symbol></svg>