<svg xmlns="http://www.w3.org/2000/svg" width="24" height="24" fill="none" stroke="currentColor" stroke-width="2" stroke-linecap="round" stroke-linejoin="round"><path d="M3.51 9.17l2.121 2.121M4.22 15.54a2 2 0 0 1 0 -2.83l1.22-1.22a2 2 0 0 1 2.83 0l4.23 4.23a2 2 0 0 1 0 2.83l-1.22 1.22a2 2 0 0 1 -2.83 0zM9.17 3.51l2.121 2.121M12 4.93a2 2 0 0 1 2.83 2.83l-2.121 2.121a2 2 0 0 1 -2.83-2.83zM14.83 7.76l4.95 4.95a2 2 0 0 1 0 2.83l-4.95 4.95a2 2 0 0 1 -2.83 0l-0.71-0.71M18.36 11.29l2.121 -2.121"/></svg>
